<svg xmlns="http://www.w3.org/2000/svg" viewBox="0 0 638.19 64.18"><defs><style>.cls-1{fill:#fff;}.cls-2{fill:#1596d1;}.cls-3{stroke:#f5f5f5;stroke-miterlimit:10;stroke-width:1.5px;}</style></defs><title>logoNorm</title><g id="Layer_2" data-name="Layer 2"><g id="Layer_1-2" data-name="Layer 1"><path class="cls-1" d="M474.23,40.88c0,5.65.06,11.3,0,17-.06,4.33,1.8,6.43,6.29,6.33,6.48-.14,13,.11,19.45-.08,12.33-.36,19.15-6.25,20.62-18.56,1.83-15.2-3.62-28.31-23.43-27.79-5,.13-10,0-15,0-7,0-7.92,1-7.95,8.16C474.22,30.9,474.23,35.89,474.23,40.88ZM198.89,39.59c6.35,8,11.8,14.73,17.06,21.59,2.3,3,5.19,3.45,8.44,2.6C227.89,62.86,228,60,228,57c-.08-10.82-.18-21.65-.07-32.47,0-4.29-1.58-6.62-6-6.76-4.68-.15-5.4,2.78-5.34,6.55.09,5.57,0,11.15,0,18-1.76-1.95-2.66-2.84-3.44-3.83-4.64-5.88-9.24-11.8-13.87-17.68-2.36-3-5.75-4.16-8.82-2.33-1.74,1-3,4.2-3.11,6.44-.31,10.82-.05,21.64-.18,32.47-.05,4.19,1.24,6.66,5.84,6.83,4.9.18,5.87-2.75,5.86-6.71C198.88,52,198.89,46.55,198.89,39.59ZM95,17.77v0c-3.66,0-7.33-.18-11,0-9.42.58-14.5,6.56-13.74,15.92.65,8,5.63,12.22,15,12.74,3.65.2,7.34.09,11,.54,1.16.15,2.15,1.65,3.22,2.53-1,1-1.77,2.32-2.94,2.87s-2.6.3-3.93.31c-5.66.06-11.31.06-17,.13-3.42,0-5.23,1.87-5.33,5.26-.1,3.17,1,5.81,4.6,5.84,8.14.06,16.35.4,24.42-.39C107.2,62.82,111,57.77,111,50c0-8.24-3.61-13-11.59-14.24-4.41-.69-9-.44-13.39-1-1.49-.19-2.81-1.62-4.21-2.49,1.32-1,2.5-2.42,4-2.95s3.28-.18,4.94-.19c5.16,0,10.32,0,15.47-.12,3.6-.1,4.81-2.43,4.79-5.7s-1.5-5.43-5-5.51S98.65,17.77,95,17.77ZM250.43,64.08v-.27c4.15,0,8.36.42,12.45-.09,7.91-1,12-5.74,12.11-13.29.13-8.59-3.49-13.33-11.66-14.69-3.75-.62-7.64-.36-11.39-1-2.13-.35-4.09-1.67-6.13-2.56,2-1.06,4-2.2,6-3.11.69-.31,1.64,0,2.47,0,5.32,0,10.65.05,16-.1,3.62-.09,4.75-2.5,4.72-5.75,0-3.07-1.33-5.33-4.59-5.39-7.82-.13-15.67-.42-23.45.14-8.23.59-12.61,5.83-12.72,13.85-.11,8.48,4,13.23,12.65,14.34,3.78.49,7.66.17,11.42.74,1.81.28,3.44,1.78,5.15,2.73-1.82,1-3.58,2.85-5.45,3-6.13.42-12.3.18-18.46.28-3.42,0-5.18,1.94-5.27,5.32s1.35,5.8,5.17,5.86C243.1,64.13,246.77,64.08,250.43,64.08ZM358.69,17.77v.09c-4,0-8-.31-12,.06-8.32.77-12.81,5.69-12.92,13.62-.12,8.79,3.61,13.36,12.31,14.54,4.26.58,8.64.33,12.9.92,1.38.19,2.55,1.89,3.82,2.89-1.21.93-2.29,2.15-3.65,2.7-1.16.46-2.63.15-4,.17-5.49.05-11,0-16.47.16-3.12.1-4.85,1.83-4.95,5.08-.1,3,.56,5.8,3.94,5.84,8.79.1,17.67.41,26.36-.66,7.36-.91,10.54-6,10.46-13.53-.08-7.68-3.68-12.51-11-13.79-4.56-.79-9.28-.53-13.89-1.1-1.56-.2-3-1.5-4.47-2.3,1.43-1.09,2.73-2.5,4.34-3.17,1.29-.54,3-.2,4.45-.2,5.15,0,10.31,0,15.47-.06,3.9-.06,5.16-2.63,5-6s-1.74-5.29-5.3-5.26S362.19,17.77,358.69,17.77Zm263.72,0v.09c-4,0-8-.3-12,.07-8.33.77-12.72,5.62-12.83,13.64-.12,8.81,3.62,13.4,12.27,14.54,3.94.53,8,.23,11.91.85,1.74.28,3.26,1.91,4.88,2.92-1.72,1-3.4,2.63-5.17,2.74-6.13.38-12.3.19-18.46.26-3.63,0-5.44,1.81-5.46,5.57s1.71,5.63,5.38,5.63c7.15,0,14.31.17,21.45-.19,8.67-.45,13.48-5.14,13.76-12.73.36-9.57-3.44-14.34-12.84-15.64-3.93-.54-8-.26-11.92-.76-1.54-.2-2.94-1.51-4.4-2.31,1.41-1.09,2.7-2.5,4.29-3.16,1.29-.54,3-.19,4.44-.19,5.16,0,10.32,0,15.47-.07,3.9-.08,5-2.58,4.95-6s-1.78-5.23-5.26-5.22ZM134.61,40.9c0,13.19,9.76,23.15,22.83,23.24,13.43.1,23.54-9.81,23.55-23.09a22.89,22.89,0,0,0-22.92-23.29C144.59,17.69,134.63,27.51,134.61,40.9Zm456.56.66c.18-13.18-9.62-23.59-22.36-23.8-13.55-.22-23.87,9.52-24,22.65-.15,13.46,9.64,23.61,22.9,23.73S591,54.56,591.17,41.56Zm-163.55-7.2h.2c0,3.83-.23,7.67.05,11.48.88,11.84,7.69,18.15,19.43,18.3C460,64.3,467.08,58.34,468,46.2c.55-7.13.51-14.31.48-21.47,0-5.32-1.91-7.31-6.15-7.11-4.74.24-5.48,3.46-5.47,7.32,0,6.33.49,12.74-.35,19A12.18,12.18,0,0,1,451.15,52c-2.09,1.15-6.64.34-8.52-1.35-2.13-1.93-3.2-5.75-3.48-8.85a173.86,173.86,0,0,1-.13-18c.06-3.83-1.41-6.05-5.46-6.12-4.25-.08-6,2.15-5.95,6.21C427.66,27.36,427.62,30.86,427.62,34.36ZM23.29,45.81c-1.06-2.06-1.81-3.47-2.52-4.9C17.52,34.35,14.3,27.78,11,21.22c-1.7-3.43-4.55-4.52-7.88-2.9-3.11,1.52-4,4.17-2.34,7.53C6.48,37.34,12,48.93,17.81,60.31c.88,1.72,3.55,3.62,5.28,3.52a8,8,0,0,0,5.65-3.73c5.71-10.9,11-22,16.44-33,1.75-3.55,2.21-7-2-8.82-4-1.78-6.53.45-8.28,4.07C31.19,29.93,27.39,37.49,23.29,45.81ZM406.89,29c3.8,0,6.94.14,10.07,0,3.38-.2,4.42-2.72,4.46-5.58s-1-5.46-4.45-5.51q-15.48-.22-31-.11c-3.67,0-5.29,2.24-5.22,5.87s2,5.47,5.59,5.5c2.78,0,5.56,0,8.86,0,0,9.5,0,18.3,0,27.09,0,6.14,1.35,7.93,5.73,7.94s5.9-1.88,5.92-7.78C406.91,47.52,406.89,38.7,406.89,29Zm-290,12q0,8.49,0,17c0,3.61,1.19,6.09,5.37,6.28s6.19-2,6.22-5.94q.12-17.22,0-34.42c0-3.95-1.88-6.21-6.15-6.07s-5.44,2.62-5.46,6.23C116.87,29.62,116.89,35.28,116.89,40.93Zm410-.11q0,8.48,0,17c0,3.57,1.06,6.15,5.26,6.38s6.29-1.8,6.32-5.82q.12-17.46,0-34.92c0-3.76-2-5.77-6-5.68s-5.53,2.48-5.56,6.12C526.86,29.51,526.9,35.17,526.89,40.82ZM298.79,23.68c0,5.82.06,11.64,0,17.46,0,3.83,1.45,5.94,5.51,6s5.85-1.81,5.86-5.68q0-17.46,0-34.92c0-3.86-1.84-5.83-5.79-5.81s-5.63,2.15-5.59,6C298.83,12.38,298.79,18,298.79,23.68ZM52.8,41c0,5.81,0,11.63,0,17.45,0,3.62,1.51,5.58,5.3,5.72s6-1.49,6-5.47q0-17.7,0-35.41c0-4-2.22-5.63-6-5.51s-5.31,2.17-5.29,5.76C52.82,29.34,52.79,35.16,52.8,41Z"/><path d="M474.23,40.88c0-5,0-10,0-15,0-7.2.95-8.15,7.95-8.16,5,0,10,.11,15,0,19.81-.52,25.26,12.59,23.43,27.79-1.47,12.31-8.29,18.2-20.62,18.56-6.48.19-13-.06-19.45.08-4.49.1-6.35-2-6.29-6.33C474.29,52.18,474.23,46.53,474.23,40.88Zm12-11.7V52.76h10.25a29.77,29.77,0,0,0,3-.08c6.66-.74,9.82-4.68,9.71-12-.11-7.08-3.26-10.95-9.77-11.41C495.18,28.94,490.88,29.18,486.27,29.18Z"/><path d="M198.89,39.59c0,7,0,12.41,0,17.86,0,4-1,6.89-5.86,6.71-4.6-.17-5.89-2.64-5.84-6.83.13-10.83-.13-21.65.18-32.47.07-2.24,1.37-5.4,3.11-6.44,3.07-1.83,6.46-.66,8.82,2.33,4.63,5.88,9.23,11.8,13.87,17.68.78,1,1.68,1.88,3.44,3.83,0-6.8.07-12.38,0-17.95-.06-3.77.66-6.7,5.34-6.55,4.43.14,6,2.47,6,6.76-.11,10.82,0,21.65.07,32.47,0,3-.12,5.87-3.62,6.79-3.25.85-6.14.4-8.44-2.6C210.69,54.32,205.24,47.6,198.89,39.59Z"/><path d="M95,17.77c3.67,0,7.33-.06,11,0s5,2.17,5,5.51-1.19,5.6-4.79,5.7c-5.15.13-10.31.08-15.47.12-1.66,0-3.46-.33-4.94.19s-2.67,1.94-4,2.95c1.4.87,2.72,2.3,4.21,2.49,4.43.57,9,.32,13.39,1C107.38,37,111,41.76,111,50c0,7.77-3.79,12.82-11.69,13.59C91.23,64.38,83,64,74.88,64c-3.65,0-4.7-2.67-4.6-5.84.1-3.39,1.91-5.22,5.33-5.26,5.66-.07,11.31-.07,17-.13,1.33,0,2.82.22,3.93-.31s2-1.88,2.94-2.87c-1.07-.88-2.06-2.38-3.22-2.53-3.61-.45-7.3-.34-11-.54-9.39-.52-14.37-4.76-15-12.74C69.5,24.4,74.58,18.42,84,17.84c3.65-.22,7.32,0,11,0Z"/><path d="M250.43,64.08c-3.66,0-7.33,0-11,0-3.82-.06-5.26-2.35-5.17-5.86s1.85-5.27,5.27-5.32c6.16-.1,12.33.14,18.46-.28,1.87-.12,3.63-1.93,5.45-3-1.71-1-3.34-2.45-5.15-2.73-3.76-.57-7.64-.25-11.42-.74-8.69-1.11-12.76-5.86-12.65-14.34.11-8,4.49-13.26,12.72-13.85,7.78-.56,15.63-.27,23.45-.14,3.26.06,4.55,2.32,4.59,5.39,0,3.25-1.1,5.66-4.72,5.75-5.32.15-10.65.08-16,.1-.83,0-1.78-.3-2.47,0-2.06.91-4,2.05-6,3.11,2,.89,4,2.21,6.13,2.56,3.75.62,7.64.36,11.39,1,8.17,1.36,11.79,6.1,11.66,14.69-.1,7.55-4.2,12.32-12.11,13.29-4.09.51-8.3.09-12.45.09Z"/><path d="M358.69,17.77c3.5,0,7,0,10.49,0s5.18,2,5.3,5.26-1.14,5.95-5,6c-5.16.09-10.32,0-15.47.06-1.5,0-3.16-.34-4.45.2-1.61.67-2.91,2.08-4.34,3.17,1.49.8,2.91,2.1,4.47,2.3,4.61.57,9.33.31,13.89,1.1,7.33,1.28,10.93,6.11,11,13.79.08,7.51-3.1,12.62-10.46,13.53-8.69,1.07-17.57.76-26.36.66-3.38,0-4-2.89-3.94-5.84.1-3.25,1.83-5,4.95-5.08,5.48-.16,11-.11,16.47-.16,1.33,0,2.8.29,4-.17,1.36-.55,2.44-1.77,3.65-2.7-1.27-1-2.44-2.7-3.82-2.89-4.26-.59-8.64-.34-12.9-.92-8.7-1.18-12.43-5.75-12.31-14.54.11-7.93,4.6-12.85,12.92-13.62,4-.37,8-.06,12-.06Z"/><path d="M622.41,17.77H632.9c3.48,0,5.16,1.78,5.26,5.22s-1,6-4.95,6c-5.15.1-10.31,0-15.47.07-1.49,0-3.15-.35-4.44.19-1.59.66-2.88,2.07-4.29,3.16,1.46.8,2.86,2.11,4.4,2.31,3.94.5,8,.22,11.92.76,9.4,1.3,13.2,6.07,12.84,15.64-.28,7.59-5.09,12.28-13.76,12.73-7.14.36-14.3.2-21.45.19-3.67,0-5.39-1.88-5.38-5.63s1.83-5.53,5.46-5.57c6.16-.07,12.33.12,18.46-.26,1.77-.11,3.45-1.78,5.17-2.74-1.62-1-3.14-2.64-4.88-2.92-3.92-.62-8-.32-11.91-.85-8.65-1.14-12.39-5.73-12.27-14.54.11-8,4.5-12.87,12.83-13.64,4-.37,8-.07,12-.07Z"/><path d="M134.61,40.9c0-13.39,10-23.21,23.46-23.14A22.89,22.89,0,0,1,181,41.05c0,13.28-10.12,23.19-23.55,23.09C144.37,64.05,134.59,54.09,134.61,40.9ZM157.8,52.75a12.08,12.08,0,0,0,11.93-12.1A12.28,12.28,0,0,0,157.78,29,12,12,0,0,0,146,40.67,11.77,11.77,0,0,0,157.8,52.75Z"/><path d="M591.17,41.56c-.17,13-10.25,22.7-23.48,22.58s-23.05-10.27-22.9-23.73c.15-13.13,10.47-22.87,24-22.65C581.55,18,591.35,28.38,591.17,41.56Zm-11.31-.66a11.84,11.84,0,1,0-11.69,11.85A11.81,11.81,0,0,0,579.86,40.9Z"/><path d="M427.62,34.36c0-3.5,0-7,0-10.5-.06-4.06,1.7-6.29,5.95-6.21,4.05.07,5.52,2.29,5.46,6.12a173.86,173.86,0,0,0,.13,18c.28,3.1,1.35,6.92,3.48,8.85,1.88,1.69,6.43,2.5,8.52,1.35a12.18,12.18,0,0,0,5.38-8.05c.84-6.22.36-12.63.35-19,0-3.86.73-7.08,5.47-7.32,4.24-.2,6.13,1.79,6.15,7.11,0,7.16.07,14.34-.48,21.47-.94,12.14-8,18.1-20.72,17.94-11.74-.15-18.55-6.46-19.43-18.3-.28-3.81-.05-7.65-.05-11.48Z"/><path d="M23.29,45.81c4.1-8.32,7.9-15.88,11.57-23.51,1.75-3.62,4.24-5.85,8.28-4.07,4.25,1.86,3.79,5.27,2,8.82-5.45,11-10.73,22.15-16.44,33.05a8,8,0,0,1-5.65,3.73c-1.73.1-4.4-1.8-5.28-3.52C12,48.93,6.48,37.34.82,25.85c-1.65-3.36-.77-6,2.34-7.53,3.33-1.62,6.18-.53,7.88,2.9,3.26,6.56,6.48,13.13,9.73,19.69C21.48,42.34,22.23,43.75,23.29,45.81Z"/><path d="M406.89,29c0,9.74,0,18.56,0,27.38,0,5.9-1.49,7.8-5.92,7.78s-5.7-1.8-5.73-7.94c0-8.79,0-17.59,0-27.09-3.3,0-6.08,0-8.86,0-3.62,0-5.53-1.75-5.59-5.5s1.55-5.85,5.22-5.87q15.48-.12,31,.11c3.41.05,4.49,2.6,4.45,5.51s-1.08,5.38-4.46,5.58C413.83,29.1,410.69,29,406.89,29Z"/><path d="M116.89,40.93c0-5.65,0-11.31,0-17,0-3.61,1.33-6.09,5.46-6.23s6.13,2.12,6.15,6.07q.09,17.21,0,34.42c0,4-1.92,6.13-6.22,5.94s-5.36-2.67-5.37-6.28Q116.89,49.42,116.89,40.93Z"/><path d="M526.89,40.82c0-5.65,0-11.31,0-17,0-3.64,1.46-6,5.56-6.12s6,1.92,6,5.68q.15,17.46,0,34.92c0,4-2.08,6-6.32,5.82s-5.26-2.81-5.26-6.38Q526.89,49.31,526.89,40.82Z"/><path d="M52.8,41c0-5.82,0-11.64,0-17.46,0-3.59,1.52-5.65,5.29-5.76s6,1.52,6,5.51q0,17.72,0,35.41c0,4-2.16,5.61-6,5.47s-5.32-2.1-5.3-5.72C52.83,52.61,52.8,46.79,52.8,41Z"/><path class="cls-1" d="M486.27,29.18c4.61,0,8.91-.24,13.18.06,6.51.46,9.66,4.33,9.77,11.41.11,7.35-3.05,11.29-9.71,12a29.77,29.77,0,0,1-3,.08H486.27Z"/><path class="cls-1" d="M157.8,52.75A11.77,11.77,0,0,1,146,40.67,12,12,0,0,1,157.78,29a12.28,12.28,0,0,1,11.95,11.66A12.08,12.08,0,0,1,157.8,52.75Z"/><path class="cls-1" d="M579.86,40.9a11.84,11.84,0,1,1-23.67-.23,11.84,11.84,0,0,1,23.67.23Z"/><path class="cls-2" d="M281.61,40.9c0-13.39,10-23.21,23.46-23.14A22.89,22.89,0,0,1,328,41.05c0,13.28-10.12,23.19-23.55,23.09C291.37,64.05,281.59,54.09,281.61,40.9ZM304.8,53.75a12.08,12.08,0,0,0,11.93-12.1,12.28,12.28,0,0,0-12-11.66A12,12,0,0,0,293,41.67,11.77,11.77,0,0,0,304.8,53.75Z"/><path class="cls-3" d="M298.79,23.68c0-5.65,0-11.3,0-16.95,0-3.83,1.55-6,5.59-6s5.79,2,5.79,5.81q0,17.46,0,34.92c0,3.87-1.86,5.77-5.86,5.68s-5.56-2.19-5.51-6C298.85,35.32,298.79,29.5,298.79,23.68Z"/></g></g></svg>